HIERARCHY
ROOT Hips
{
  OFFSET -0.610131 36.2543 94.4577
  CHANNELS 6 Xposition Yposition Zposition Zrotation Xrotation Yrotation
  JOINT LeftHip
  {
    OFFSET 3.43 0 0
    CHANNELS 3 Zrotation Xrotation Yrotation
    JOINT LeftKnee
    {
      OFFSET 0 -18.47 0
      CHANNELS 3 Zrotation Xrotation Yrotation
      JOINT LeftAnkle
      {
        OFFSET 0 -17.95 0
        CHANNELS 3 Zrotation Xrotation Yrotation
        End Site
        {
          OFFSET 0 -3.12 0
        }
      }
    }
  }
  JOINT RightHip
  {
    OFFSET -3.43 0 0
    CHANNELS 3 Zrotation Xrotation Yrotation
    JOINT RightKnee
    {
      OFFSET 0 -18.47 0
      CHANNELS 3 Zrotation Xrotation Yrotation
      JOINT RightAnkle
      {
        OFFSET 0 -17.95 0
        CHANNELS 3 Zrotation Xrotation Yrotation
        End Site
        {
          OFFSET 0 -3.12 0
        }
      }
    }
  }
  JOINT Chest
  {
    OFFSET 0 4.57 0
    CHANNELS 3 Zrotation Xrotation Yrotation
    JOINT CS_BVH
    {
      OFFSET 0 6.57 0
      CHANNELS 3 Zrotation Xrotation Yrotation
      JOINT LeftCollar
      {
        OFFSET 1.06 4.19 1.76
        CHANNELS 3 Zrotation Xrotation Yrotation
        JOINT LeftShoulder
        {
          OFFSET 5.81 0 0
          CHANNELS 3 Zrotation Xrotation Yrotation
          JOINT LeftElbow
          {
            OFFSET 0 -12.08 0
            CHANNELS 3 Zrotation Xrotation Yrotation
            JOINT LeftWrist
            {
              OFFSET 0 -9.82 0
              CHANNELS 3 Zrotation Xrotation Yrotation
              End Site
              {
                OFFSET 0 -7.37 0
              }
            }
          }
        }
      }
      JOINT RightCollar
      {
        OFFSET -1.06 4.19 1.76
        CHANNELS 3 Zrotation Xrotation Yrotation
        JOINT RightShoulder
        {
          OFFSET -6.06 0 0
          CHANNELS 3 Zrotation Xrotation Yrotation
          JOINT RightElbow
          {
            OFFSET 0 -11.08 0
            CHANNELS 3 Zrotation Xrotation Yrotation
            JOINT RightWrist
            {
              OFFSET 0 -9.82 0
              CHANNELS 3 Zrotation Xrotation Yrotation
              End Site
              {
                OFFSET 0 -7.14001 0
              }
            }
          }
        }
      }
      JOINT Neck
      {
        OFFSET 0 4.05 0
        CHANNELS 3 Zrotation Xrotation Yrotation
        JOINT Head
        {
          OFFSET 0 5.19 0
          CHANNELS 3 Zrotation Xrotation Yrotation
          End Site
          {
            OFFSET 0 4.14001 0
          }
        }
      }
    }
  }
}
MOTION
Frames:	9
Frame Time:	0.0333333
-6.26965 38.4865 -66.327 0.408374 0.291583 0.00551019 5.36178 -12.6597 -0.228206 0.0784371 25.1014 -0.404402 -5.95296 -12.7293 -0.690684 -6.27084 -15.6214 0.160588 -0.120462 31.1215 0.681658 6.06455 -15.7896 0.835384 -0.559394 0.73971 0.0113716 -0.137117 0.941909 0.0240965 10 -6.20208e-014 1.16786e-014 80 -2.01456e-014 4.62651e-012 4.8269e-011 -9.41643e-013 1.99513e-010 0.00962306 -8.52727e-012 1.08862e-009 -10 -6.0033e-014 -9.0447e-015 -80 -8.30547e-014 -4.50088e-012 6.4789e-011 -1.35679e-012 -1.95067e-010 2.05931e-010 -2.25136e-011 -1.06469e-009 -2.56341e-014 -4.53229e-014 1.63376e-015 -8.26993e-014 -2.34963e-013 5.82688e-015 
-5.80366 37.9493 -65.3183 -0.668739 2.9096 5.79783 -3.24675 -34.6919 -22.4142 0.0274876 44.0772 -3.46054 -3.80808 -17.228 7.07301 3.63612 4.41784 10.1985 -0.151825 34.485 -0.559835 5.14112 -31.4938 -6.46891 -2.03741 8.28249 -1.75881 4.64147 -12.1662 0.349395 10 -6.20208e-014 1.16786e-014 -5.38769 10.9858 -21.9811 11.3452 -18.3368 3.2656 0.00730891 -0.0996166 -1.33077 -10 -6.0033e-014 -9.0447e-015 1.9979 -0.0126759 23.9675 -10.3873 -16.7681 -3.23359 0.310096 -1.7391 17.7083 -5.79375 -7.06535 -6.29304 9.18764 22.1365 -13.4155 
-5.42546 37.9275 -64.3778 -0.04445 3.36093 4.63362 -2.92708 -34.6316 -18.7273 0.0304285 45.302 -3.31705 -4.23607 -16.6838 4.82276 2.53243 4.2062 11.5315 -0.101613 36.3815 -0.440609 5.18694 -29.4816 -6.38308 -2.85757 7.76624 -0.357421 4.1828 -11.7116 0.662478 10 -6.20208e-014 1.16786e-014 -4.98416 10.6146 -23.3223 11.1575 -18.0645 3.18557 0.00851306 -0.0689932 -0.92172 -10 -6.0033e-014 -9.0447e-015 2.84531 0.918401 24.648 -11.9825 -19.0495 -3.95883 0.157811 -1.21662 12.2705 -5.20428 -7.38765 -6.58344 8.66108 21.6247 -13.8879 
-4.99028 37.877 -63.3686 0.870354 3.45362 3.91039 -3.73998 -33.8922 -16.9648 0.0331352 46.453 -2.95374 -4.64927 -16.6476 3.08657 1.02601 2.80984 11.541 -0.00274447 41.2534 -0.297939 5.43124 -27.6734 -4.92234 -3.77253 7.76369 -0.0048062 4.39409 -12.5376 0.757358 10 -6.20208e-014 1.16786e-014 -5.59859 11.4815 -22.8463 10.9447 -17.7541 3.0958 0.00565791 -0.13039 -1.74182 -10 -6.0033e-014 -9.0447e-015 2.5193 3.37082 23.4443 -12.2568 -19.4323 -4.0888 0.139106 -1.13635 11.4475 -5.95337 -6.98966 -6.39206 9.03111 22.0713 -13.5694 
-4.50529 37.895 -62.3619 2.10157 3.5177 2.81096 -5.2791 -32.4885 -16.1343 0.0345068 47.0196 -2.56169 -4.9059 -16.9508 3.00649 -1.60871 0.674313 9.62137 0.00713507 46.3084 0.000739822 6.17108 -23.1278 -2.31508 -4.85104 7.73731 0.956745 4.03505 -12.4276 0.930378 10 -6.20208e-014 1.16786e-014 -5.42887 11.2627 -25.0963 10.9991 -17.8335 3.11866 0.00892921 -0.0545481 -0.72876 -10 -6.0033e-014 -9.0447e-015 2.49412 4.85868 22.2173 -12.0559 -19.1522 -3.99346 0.148796 -1.14481 11.5341 -6.09543 -7.80738 -6.40022 8.84027 23.069 -13.5008 
-3.88712 37.8627 -61.2896 4.03979 3.07609 3.28259 -8.74081 -30.3686 -17.4036 0.036258 47.7515 -2.14217 -5.09529 -17.809 3.50393 -5.13985 -1.43642 6.00805 0.0204384 52.2781 0.411127 6.48661 -15.9463 -1.64885 -6.50845 7.91542 0.712928 3.41629 -12.0614 0.707333 10 -6.20208e-014 1.16786e-014 -5.18291 11.1115 -26.2509 10.8215 -17.5737 3.04429 0.00876854 -0.0605351 -0.808736 -10 -6.0033e-014 -9.0447e-015 2.54021 6.45698 20.3203 -11.5167 -18.3929 -3.74158 0.175694 -1.28888 13.0139 -5.73894 -7.8776 -6.48818 8.24934 23.4566 -13.6285 
-3.40916 37.793 -60.3253 6.13046 3.08544 2.06257 -11.4789 -28.7843 -17.4636 0.0370895 48.1974 -1.6201 -5.30633 -18.979 4.23392 -8.82736 -5.75395 4.45842 0.0427049 59.6893 0.974757 6.69012 -7.31767 -2.22113 -8.77394 7.64567 1.27476 3.32448 -11.5292 0.739899 10 -6.20208e-014 1.16786e-014 -5.13211 10.4754 -27.9417 11.0818 -17.9543 3.1536 0.00958718 -0.0124042 -0.165736 -10 -6.0033e-014 -9.0447e-015 1.93661 7.26611 21.9011 -11.5787 -18.4808 -3.77029 0.1524 -1.19393 12.0376 -5.84937 -7.84386 -6.39622 7.84483 23.1896 -13.3257 
-3.05255 37.7143 -59.4058 8.91291 2.89556 0.35526 -14.1023 -27.0028 -16.1939 0.0356409 47.9653 -1.0277 -5.67628 -20.2686 4.30524 -12.8304 -10.9518 3.9916 0.0786571 67.568 1.58387 7.12322 1.117 -3.46478 -12.3873 8.0658 2.37864 3.17463 -11.4834 0.891854 10 -6.20208e-014 1.16786e-014 -4.90369 9.76128 -28.8534 11.664 -18.7968 3.4034 0.00905009 0.0495617 0.662347 -10 -6.0033e-014 -9.0447e-015 1.68098 8.00768 22.4266 -11.6058 -18.5191 -3.78283 0.139829 -1.22385 12.3448 -5.68552 -8.26332 -6.21816 7.58746 23.7523 -12.9213 
-2.82936 37.4774 -58.5635 11.2927 2.19083 -1.90743 -16.0813 -25.5106 -14.3112 0.0366197 48.6569 -0.663735 -5.96341 -22.1842 4.47215 -15.7136 -16.2329 4.61764 0.140101 75.0804 2.2397 9.65486 8.73085 -10.2815 -15.4943 8.49347 3.90461 2.46535 -10.7543 1.13186 10 -6.20208e-014 1.16786e-014 -4.20247 8.19588 -30.1226 12.0673 -19.3734 3.58077 0.00716707 0.102592 1.37137 -10 -6.0033e-014 -9.0447e-015 1.80766 8.20275 23.0381 -11.8828 -18.9096 -3.91199 0.128658 -1.20565 12.1578 -5.09641 -8.84238 -6.04586 6.85919 23.7024 -12.4271 
